<svg width="22" height="29" viewBox="3 0 29 29" fill="none" xmlns="http://www.w3.org/2000/svg">
<g id="Box_open">
<path id="Rectangle 1" d="M7.25 13.7401C7.25 12.9226 7.25 12.5139 7.40224 12.1463C7.55448 11.7788 7.84351 11.4897 8.42157 10.9117L9.70343 9.62982C10.2815 9.05176 10.5705 8.76273 10.9381 8.61049C11.3056 8.45825 11.7144 8.45825 12.5319 8.45825H16.4681C17.2856 8.45825 17.6944 8.45825 18.0619 8.61049C18.4295 8.76273 18.7185 9.05176 19.2966 9.62982L20.5784 10.9117C21.1565 11.4897 21.4455 11.7788 21.5978 12.1463C21.75 12.5139 21.75 12.9226 21.75 13.7401V20.1666C21.75 22.0522 21.75 22.995 21.1642 23.5808C20.5784 24.1666 19.6356 24.1666 17.75 24.1666H11.25C9.36438 24.1666 8.42157 24.1666 7.83579 23.5808C7.25 22.995 7.25 22.0522 7.25 20.1666V13.7401Z" stroke="#303030" stroke-width="2"/>
<path id="Vector 3" d="M10.875 8.45841L7.38868 6.1342C7.3047 6.07821 7.1953 6.07821 7.11133 6.1342L3.87873 8.28926C3.74747 8.37677 3.72908 8.56249 3.84063 8.67405L6.99975 11.8332C7.15998 11.9934 7.25 12.2107 7.25 12.4373V12.4373C7.25 12.9092 7.63254 13.2917 8.10442 13.2917H20.8956C21.3675 13.2917 21.75 12.9092 21.75 12.4373V12.4373C21.75 12.2107 21.84 11.9934 22.0003 11.8332L25.1594 8.67405C25.2709 8.56249 25.2525 8.37677 25.1213 8.28926L21.8887 6.1342C21.8047 6.07821 21.6953 6.07821 21.6113 6.1342L18.125 8.45841" stroke="#303030" stroke-width="2" stroke-linecap="round"/>
</g>
</svg>
