<svg width="19" height="22" viewBox="0 0 19 22" fill="none" xmlns="http://www.w3.org/2000/svg">
<path id="Vector" d="M9.67633 15.2936C10.2513 15.1931 10.6393 14.6259 10.5428 14.0268C10.4463 13.4276 9.90194 13.0233 9.32688 13.1239L9.67633 15.2936ZM11.6131 22C12.1961 22 12.6688 21.5075 12.6688 20.9C12.6688 20.2925 12.1961 19.8 11.6131 19.8V22ZM15.0864 16.8222C14.674 17.2517 14.674 17.9483 15.0864 18.3778C15.4987 18.8074 16.1672 18.8074 16.5794 18.3778L15.0864 16.8222ZM12.7655 14.0258C12.6202 14.6142 12.9601 15.2139 13.5248 15.3652C14.0895 15.5167 14.665 15.1625 14.8103 14.5742L12.7655 14.0258ZM15.8329 19.8C15.2498 19.8 14.7772 20.2925 14.7772 20.9C14.7772 21.5075 15.2498 22 15.8329 22V19.8ZM15.8435 22C16.4266 22 16.8992 21.5075 16.8992 20.9C16.8992 20.2925 16.4266 19.8 15.8435 19.8V22ZM11.6131 5.5C11.6131 7.32253 10.1951 8.8 8.44588 8.8V11C11.3612 11 13.7245 8.53756 13.7245 5.5H11.6131ZM8.44588 8.8C6.69669 8.8 5.27869 7.32253 5.27869 5.5H3.16723C3.16723 8.53756 5.53057 11 8.44588 11V8.8ZM5.27869 5.5C5.27869 3.67746 6.69669 2.2 8.44588 2.2V0C5.53057 0 3.16723 2.46244 3.16723 5.5H5.27869ZM8.44588 2.2C10.1951 2.2 11.6131 3.67746 11.6131 5.5H13.7245C13.7245 2.46244 11.3612 0 8.44588 0V2.2ZM8.44588 13.2C7.66823 13.2 6.93249 13.0254 6.2705 12.713L5.39923 14.717C6.32951 15.1561 7.36178 15.4 8.44588 15.4V13.2ZM2.11151 19.14V17.2525H4.77607e-05V19.14H2.11151ZM2.74494 19.8C2.43189 19.8 2.2606 19.7991 2.13751 19.7887C2.02675 19.7792 2.05079 19.7678 2.11151 19.8L1.15292 21.7602C1.43947 21.9123 1.72424 21.9608 1.96557 21.9814C2.19458 22.0009 2.46674 22 2.74494 22V19.8ZM4.77607e-05 19.14C4.77607e-05 19.4298 -0.000775821 19.7134 0.0179423 19.952C0.0376527 20.2035 0.0841787 20.5003 0.230186 20.7988L2.11151 19.8C2.14244 19.8632 2.13143 19.8883 2.12238 19.7729C2.11233 19.6447 2.11151 19.4661 2.11151 19.14H4.77607e-05ZM2.11151 19.8L0.230186 20.7988C0.432611 21.2127 0.755633 21.5493 1.15292 21.7602L2.11151 19.8ZM2.11151 17.2525C2.11151 16.5053 2.11576 16.278 2.14528 16.1081L0.0675934 15.7161C-0.00420672 16.1294 4.77607e-05 16.6013 4.77607e-05 17.2525H2.11151ZM3.84265 12.1221C3.71721 12.132 3.59461 12.147 3.47069 12.1704L3.84683 14.3352C3.88532 14.3279 3.93418 14.3211 4.0031 14.3157L3.84265 12.1221ZM2.14528 16.1081C2.30215 15.2052 2.98032 14.4987 3.84683 14.3352L3.47069 12.1704C1.73767 12.4973 0.381335 13.9105 0.0675934 15.7161L2.14528 16.1081ZM6.2705 12.713C5.77336 12.4784 5.39333 12.2949 5.14087 12.2208L4.56766 14.3382C4.56142 14.3363 4.5732 14.3395 4.61323 14.3557C4.65155 14.3711 4.7039 14.3936 4.7763 14.4262C4.92287 14.4922 5.11972 14.585 5.39923 14.717L6.2705 12.713ZM4.0031 14.3157C4.25402 14.2958 4.29336 14.2947 4.35949 14.2999L4.51635 12.1059C4.26514 12.0865 4.06689 12.1043 3.84265 12.1221L4.0031 14.3157ZM5.14087 12.2208C4.91371 12.154 4.75171 12.1242 4.51635 12.1059L4.35949 14.2999C4.42184 14.3047 4.44826 14.3087 4.46481 14.3117C4.48135 14.3147 4.50747 14.3205 4.56766 14.3382L5.14087 12.2208ZM9.32688 13.1239C9.0411 13.1738 8.74676 13.2 8.44588 13.2V15.4C8.86437 15.4 9.27547 15.3637 9.67633 15.2936L9.32688 13.1239ZM11.6131 19.8H2.74494V22H11.6131V19.8ZM16.8885 14.85C16.8885 15.0405 16.8406 15.1858 16.5513 15.4767C16.3891 15.6398 16.198 15.8018 15.933 16.0314C15.6814 16.2495 15.3863 16.5096 15.0864 16.8222L16.5794 18.3778C16.8073 18.1404 17.04 17.9336 17.2833 17.7228C17.5132 17.5235 17.784 17.2945 18.0176 17.0596C18.5203 16.5542 19 15.8745 19 14.85H16.8885ZM15.8328 13.75C16.4159 13.75 16.8885 14.2425 16.8885 14.85H19C19 13.0274 17.582 11.55 15.8328 11.55V13.75ZM14.8103 14.5742C14.9276 14.0995 15.3424 13.75 15.8328 13.75V11.55C14.3556 11.55 13.1171 12.6027 12.7655 14.0258L14.8103 14.5742ZM15.8329 22H15.8435V19.8H15.8329V22Z" fill="#303030"/>
</svg>
