<svg width="19" height="22" viewBox="0 0 19 22" fill="none" xmlns="http://www.w3.org/2000/svg">
<path id="Vector" d="M3.16667 22H15.8333C16.6732 22 17.4786 21.6523 18.0725 21.0335C18.6664 20.4146 19 19.5752 19 18.7V5.5C19 4.91652 18.7776 4.35695 18.3817 3.94437C17.9858 3.53179 17.4488 3.3 16.8889 3.3H14.7778V1.1C14.7778 0.808262 14.6666 0.528473 14.4686 0.322182C14.2707 0.115892 14.0022 0 13.7222 0C13.4423 0 13.1738 0.115892 12.9758 0.322182C12.7779 0.528473 12.6667 0.808262 12.6667 1.1V3.3H6.33333V1.1C6.33333 0.808262 6.22212 0.528473 6.02417 0.322182C5.82621 0.115892 5.55773 0 5.27778 0C4.99783 0 4.72934 0.115892 4.53139 0.322182C4.33343 0.528473 4.22222 0.808262 4.22222 1.1V3.3H2.11111C1.55121 3.3 1.01424 3.53179 0.61833 3.94437C0.22242 4.35695 0 4.91652 0 5.5V18.7C0 19.5752 0.33363 20.4146 0.927495 21.0335C1.52136 21.6523 2.32681 22 3.16667 22ZM2.11111 11.55C2.11111 11.4041 2.16672 11.2642 2.26569 11.1611C2.36467 11.0579 2.49891 11 2.63889 11H16.3611C16.5011 11 16.6353 11.0579 16.7343 11.1611C16.8333 11.2642 16.8889 11.4041 16.8889 11.55V18.7C16.8889 18.9917 16.7777 19.2715 16.5797 19.4778C16.3818 19.6841 16.1133 19.8 15.8333 19.8H3.16667C2.88672 19.8 2.61823 19.6841 2.42028 19.4778C2.22232 19.2715 2.11111 18.9917 2.11111 18.7V11.55Z" fill="#303030"/>
</svg>
