<svg width="24" height="24" viewBox="0 0 18 19" fill="none" xmlns="http://www.w3.org/2000/svg">
<g id="description-svgrepo-com 1">
<path id="Vector" d="M15.2321 2.09859H2.54531C2.35838 2.09859 2.1791 2.17575 2.04692 2.3131C1.91474 2.45045 1.84048 2.63674 1.84048 2.83098V16.0141C1.84048 16.2083 1.91474 16.3946 2.04692 16.532C2.1791 16.6693 2.35838 16.7465 2.54531 16.7465H15.2321C15.419 16.7465 15.5983 16.6693 15.7305 16.532C15.8627 16.3946 15.9369 16.2083 15.9369 16.0141V2.83098C15.9369 2.63674 15.8627 2.45045 15.7305 2.3131C15.5983 2.17575 15.419 2.09859 15.2321 2.09859ZM3.25013 3.56338H14.5273V5.02816H3.25013V3.56338ZM14.5273 15.2817H3.25013V6.49295H14.5273V15.2817ZM4.65977 9.42253C4.65977 9.22829 4.73403 9.042 4.86621 8.90465C4.99839 8.7673 5.17767 8.69014 5.3646 8.69014H12.4128C12.5998 8.69014 12.779 8.7673 12.9112 8.90465C13.0434 9.042 13.1176 9.22829 13.1176 9.42253C13.1176 9.61677 13.0434 9.80306 12.9112 9.94041C12.779 10.0778 12.5998 10.1549 12.4128 10.1549H5.3646C5.17767 10.1549 4.99839 10.0778 4.86621 9.94041C4.73403 9.80306 4.65977 9.61677 4.65977 9.42253ZM4.65977 12.3521C4.65977 12.1579 4.73403 11.9716 4.86621 11.8342C4.99839 11.6969 5.17767 11.6197 5.3646 11.6197H8.88871C9.07564 11.6197 9.25491 11.6969 9.38709 11.8342C9.51927 11.9716 9.59353 12.1579 9.59353 12.3521C9.59353 12.5464 9.51927 12.7326 9.38709 12.87C9.25491 13.0073 9.07564 13.0845 8.88871 13.0845H5.3646C5.17767 13.0845 4.99839 13.0073 4.86621 12.87C4.73403 12.7326 4.65977 12.5464 4.65977 12.3521Z" fill="#959595"/>
</g>
</svg>
