<svg width="24" height="21" viewBox="0 0 20 20" fill="none" xmlns="http://www.w3.org/2000/svg">
<path d="M1.66663 6.66659L1.31307 6.31303L0.959519 6.66659L1.31307 7.02014L1.66663 6.66659ZM9.99996 7.16659C10.2761 7.16659 10.5 6.94273 10.5 6.66659C10.5 6.39044 10.2761 6.16659 9.99996 6.16659V7.16659ZM4.64641 2.9797L1.31307 6.31303L2.02018 7.02014L5.35351 3.68681L4.64641 2.9797ZM1.31307 7.02014L4.64641 10.3535L5.35351 9.64637L2.02018 6.31303L1.31307 7.02014ZM1.66663 7.16659H9.99996V6.16659H1.66663V7.16659Z" fill="#222222"/>
<path d="M18.3334 13.3333L18.6869 12.9798L19.0405 13.3333L18.6869 13.6869L18.3334 13.3333ZM2.50004 13.8333C2.2239 13.8333 2.00004 13.6095 2.00004 13.3333C2.00004 13.0572 2.2239 12.8333 2.50004 12.8333L2.50004 13.8333ZM15.3536 9.64645L18.6869 12.9798L17.9798 13.6869L14.6465 10.3536L15.3536 9.64645ZM18.6869 13.6869L15.3536 17.0202L14.6465 16.3131L17.9798 12.9798L18.6869 13.6869ZM18.3334 13.8333L2.50004 13.8333L2.50004 12.8333L18.3334 12.8333L18.3334 13.8333Z" fill="#222222"/>
</svg>
