<svg width="26" height="25" viewBox="0 0 26 25" fill="none" xmlns="http://www.w3.org/2000/svg">
<g id="Info_alt_light">
<path id="Vector" d="M11.9166 10.9376H12.5C12.7761 10.9376 13 11.1614 13 11.4376V15.6459C13 15.9221 13.2238 16.1459 13.5 16.1459H14.0833M13 8.85425H13.0108" stroke="#222222" stroke-linecap="round" stroke-linejoin="round"/>
<path id="Ellipse 47" d="M14.5049 20.7068C15.6257 20.5168 16.6967 20.1163 17.6566 19.5283C18.6164 18.9404 19.4465 18.1763 20.0993 17.2799C20.7521 16.3834 21.2149 15.3722 21.4612 14.3037C21.7075 13.2353 21.7326 12.1307 21.535 11.053C21.3373 9.97529 20.9209 8.94555 20.3094 8.02258C19.6978 7.09962 18.9032 6.30151 17.971 5.67381C17.0387 5.04612 15.9869 4.60114 14.8758 4.36428C13.7646 4.12742 12.6158 4.10332 11.495 4.29335C10.3742 4.48338 9.30324 4.88383 8.34336 5.47182C7.38348 6.05981 6.55344 6.82384 5.90064 7.72028C5.24784 8.61672 4.78506 9.62801 4.53873 10.6964C4.29239 11.7648 4.26733 12.8694 4.46496 13.9472C4.66259 15.0249 5.07905 16.0546 5.69057 16.9776C6.30208 17.9005 7.09667 18.6987 8.02896 19.3264C8.96126 19.954 10.013 20.399 11.1242 20.6359C12.2353 20.8727 13.3841 20.8968 14.5049 20.7068L14.5049 20.7068Z" stroke="#222222"/>
</g>
</svg>
