<svg width="24" height="24" viewBox="0 0 18 18" fill="none" xmlns="http://www.w3.org/2000/svg">
<g id="place-marker-svgrepo-com 1" clip-path="url(#clip0_16_259)">
<path id="Vector" fill-rule="evenodd" clip-rule="evenodd" d="M4.02491 7.05635C4.02491 4.5616 6.14638 2.29578 8.95867 2.29578C11.771 2.29578 13.8924 4.5616 13.8924 7.05635C13.8924 8.62726 12.9675 10.3819 11.7502 12.0081C10.7882 13.2934 9.71797 14.4044 8.95867 15.1818C8.19936 14.4044 7.12914 13.2934 6.16711 12.0081C4.94984 10.3819 4.02491 8.62726 4.02491 7.05635ZM8.95867 0.830994C5.42756 0.830994 2.61526 3.69194 2.61526 7.05635C2.61526 9.14741 3.8048 11.2379 5.05441 12.9074C6.13576 14.3521 7.35125 15.5942 8.11098 16.3704C8.24193 16.5043 8.35943 16.6243 8.46029 16.7292C8.59244 16.8665 8.77175 16.9437 8.95867 16.9437C9.14559 16.9437 9.32489 16.8665 9.45705 16.7292C9.55791 16.6243 9.6754 16.5043 9.80636 16.3705C10.566 15.5942 11.7816 14.3521 12.863 12.9074C14.1125 11.2379 15.3021 9.14741 15.3021 7.05635C15.3021 3.69194 12.4898 0.830994 8.95867 0.830994ZM8.95867 9.25353C9.93182 9.25353 10.7207 8.43376 10.7207 7.42254C10.7207 6.41132 9.93182 5.59156 8.95867 5.59156C7.98552 5.59156 7.19661 6.41132 7.19661 7.42254C7.19661 8.43376 7.98552 9.25353 8.95867 9.25353Z" fill="#9E9E9E"/>
</g>
<defs>
<clipPath id="clip0_16_259">
<rect width="16.9157" height="17.5775" fill="white" transform="translate(0.500793 0.0986023)"/>
</clipPath>
</defs>
</svg>
