<svg width="32" height="34" viewBox="0 0 32 34" fill="none" xmlns="http://www.w3.org/2000/svg">
<path fill-rule="evenodd" clip-rule="evenodd" d="M6.66667 13.4584C6.66667 8.63284 10.6799 4.25008 16 4.25008C21.3201 4.25008 25.3333 8.63284 25.3333 13.4584C25.3333 16.497 23.5836 19.8909 21.2808 23.0366C19.4609 25.5228 17.4364 27.6717 16 29.1755C14.5636 27.6717 12.539 25.5228 10.7191 23.0366C8.41639 19.8909 6.66667 16.497 6.66667 13.4584ZM16 1.41675C9.32009 1.41675 4 6.95066 4 13.4584C4 17.5031 6.25028 21.5467 8.6142 24.776C10.6598 27.5705 12.9592 29.9731 14.3964 31.4746C14.6441 31.7336 14.8664 31.9658 15.0572 32.1685C15.3072 32.4341 15.6464 32.5834 16 32.5834C16.3536 32.5834 16.6928 32.4341 16.9428 32.1685C17.1336 31.9658 17.3559 31.7336 17.6036 31.4747C19.0407 29.9731 21.3401 27.5705 23.3859 24.776C25.7497 21.5467 28 17.5031 28 13.4584C28 6.95066 22.6799 1.41675 16 1.41675ZM16 17.7084C17.8409 17.7084 19.3333 16.1227 19.3333 14.1667C19.3333 12.2107 17.8409 10.6251 16 10.6251C14.1591 10.6251 12.6667 12.2107 12.6667 14.1667C12.6667 16.1227 14.1591 17.7084 16 17.7084Z" fill="#9E9E9E"/>
</svg>
