<svg width="23" height="13" viewBox="0 0 23 13" fill="none" xmlns="http://www.w3.org/2000/svg">
<path d="M21.9723 10.5213H21.2872C20.7979 5.43192 16.6872 0 11.5 0C6.31282 0 2.20213 5.43192 1.66385 10.5213H0.978709C0.440426 10.5213 0 10.9617 0 11.5C0 12.0384 0.489377 12.4787 1.02766 12.4787H21.9723C22.5106 12.4787 22.951 12.0383 22.951 11.5C22.951 10.9617 22.5107 10.5213 21.9723 10.5213ZM10.2277 2.05532C10.6681 1.95746 11.0596 1.90851 11.5 1.90851C11.9404 1.90851 12.3319 1.95746 12.7723 2.05532V6.31277H10.2276L10.2277 2.05532ZM3.67022 10.5213C4.01278 7.5851 5.77449 4.45316 8.27023 2.88722V7.29148C8.27023 7.82976 8.71066 8.27019 9.24894 8.27019H13.7511C14.2893 8.27019 14.7298 7.82976 14.7298 7.29148V2.88722C17.2255 4.45316 19.0362 7.5851 19.3298 10.5213H3.67022Z" fill="black"/>
</svg>
