<svg width="51" height="42" viewBox="0 0 51 42" fill="none" xmlns="http://www.w3.org/2000/svg">
<path d="M47.6547 42H3.31659C1.56984 42 0 40.551 0 38.7692V19.3846C0 19.0632 0.137063 18.7805 0.320344 18.5285L4.95656 1.19054C5.14463 0.487846 5.76937 0 6.48337 0H44.4879C45.2019 0 45.8267 0.487846 46.0147 1.19054L50.6398 18.4897C50.847 18.7498 51 19.0454 51 19.3846V38.7692C51 40.551 49.3999 42 47.6547 42ZM47.8125 38.7692V21H34.8553C34.0999 25.578 30.1856 29.0769 25.4857 29.0769C20.7857 29.0769 16.873 25.578 16.1176 21H3.1875V38.7692H47.8125ZM43.2783 3.23077H7.69303L3.80747 17.7692H17.5679C18.4429 17.7692 19.1521 18.4929 19.1521 19.3846C19.1521 22.9482 21.9937 25.8462 25.4857 25.8462C28.9792 25.8462 31.8192 22.9482 31.8192 19.3846C31.8192 18.4929 32.5284 17.7692 33.4034 17.7692H47.1654L43.2783 3.23077Z" fill="#001AFF"/>
</svg>
