<svg width="23" height="19" viewBox="0 0 23 19" fill="none" xmlns="http://www.w3.org/2000/svg">
<path id="Vector" d="M21.4913 18.8438H1.49572C0.707969 18.8438 0 18.199 0 17.4062V8.78125C0 8.63822 0.0618125 8.51244 0.144469 8.40031L2.23531 0.685969C2.32012 0.373313 2.60187 0.15625 2.92387 0.15625H20.0632C20.3852 0.15625 20.6669 0.373313 20.7517 0.685969L22.8376 8.38306C22.931 8.49878 23 8.63031 23 8.78125V17.4062C23 18.199 22.2784 18.8438 21.4913 18.8438ZM21.5625 17.4062V9.5H15.7191C15.3784 11.5369 13.6131 13.0938 11.4935 13.0938C9.37394 13.0938 7.60941 11.5369 7.26872 9.5H1.4375V17.4062H21.5625ZM19.5177 1.59375H3.46941L1.71709 8.0625H7.92278C8.31738 8.0625 8.63722 8.3845 8.63722 8.78125C8.63722 10.3668 9.91875 11.6562 11.4935 11.6562C13.069 11.6562 14.3498 10.3668 14.3498 8.78125C14.3498 8.3845 14.6697 8.0625 15.0643 8.0625H21.2707L19.5177 1.59375Z" fill="black"/>
</svg>
