<svg width="16" height="16" viewBox="0 0 16 16" fill="none" xmlns="http://www.w3.org/2000/svg">
<path d="M10.4218 5.30392C10.1578 5.03488 10.0258 4.90037 9.97637 4.74525C9.93284 4.60881 9.93284 4.46184 9.97637 4.32539C10.0258 4.17027 10.1578 4.03576 10.4218 3.76673L12.3141 1.83849C11.812 1.60707 11.2545 1.47826 10.6676 1.47826C8.45844 1.47826 6.66757 3.30318 6.66757 5.55434C6.66757 5.88793 6.70691 6.21216 6.78111 6.52248C6.86051 6.85478 6.90024 7.02092 6.89324 7.12588C6.88584 7.2358 6.86977 7.29429 6.82004 7.39205C6.77251 7.48546 6.68151 7.57819 6.49947 7.76372L2.33426 12.0081C1.78197 12.5709 1.78197 13.4834 2.33426 14.0462C2.88654 14.609 3.78197 14.609 4.33426 14.0462L8.49944 9.80176C8.68151 9.61623 8.77251 9.5235 8.86417 9.47513C8.96017 9.42445 9.01751 9.40808 9.12537 9.40054C9.22837 9.39334 9.39144 9.43383 9.71751 9.51474C10.022 9.59035 10.3402 9.63043 10.6676 9.63043C12.8767 9.63043 14.6676 7.8055 14.6676 5.55434C14.6676 4.95624 14.5412 4.38822 14.3141 3.87653L12.4218 5.80477C12.1578 6.07381 12.0258 6.20832 11.8736 6.25872C11.7397 6.30305 11.5955 6.30305 11.4616 6.25872C11.3094 6.20832 11.1774 6.07381 10.9134 5.80477L10.4218 5.30392Z" stroke="#FF0000" stroke-width="2" stroke-linecap="round" stroke-linejoin="round"/>
</svg>
