<svg width="49" height="57" viewBox="0 0 49 57" fill="none" xmlns="http://www.w3.org/2000/svg">
<path d="M19.3754 2.68467C21.2507 3.69013 22.9588 4.97995 24.4387 6.5082L24.5042 6.57374L24.5698 6.5082C26.0483 4.97943 27.7555 3.68954 29.6304 2.68467L29.6245 2.67287C28.9543 1.11331 26.5489 0 24.499 0C22.4858 0 20.0188 1.14804 19.3722 2.67942H19.3813L19.3754 2.68467Z" fill="#FA4949"/>
<path d="M34.7828 4.52534C31.4072 4.62488 28.1883 5.97074 25.7476 8.30301C26.5894 9.11566 27.382 9.97756 28.1215 10.8841C28.7775 10.1601 29.5765 9.57986 30.4682 9.17992C31.3598 8.77999 32.3248 8.56909 33.3021 8.56053C38.2473 8.46552 40.2277 11.6063 40.0638 15.1303C39.8061 20.7041 37.1495 23.5775 34.3461 26.7287C36.1823 23.3868 37.7312 19.4755 37.6184 15.2909C37.5417 12.329 35.7678 10.8592 33.5159 10.5729C31.3269 10.2951 29.4344 11.6829 30.0488 13.6573C31.906 19.7323 30.86 24.2773 28.193 27.462C29.3327 21.5442 30.2167 15.1683 24.5679 9.90385L24.5023 9.83832L24.4367 9.90385C18.7866 15.1683 19.6719 21.5442 20.8116 27.462C18.1465 24.2773 17.1012 19.7297 18.9545 13.6573C19.5729 11.6829 17.6777 10.2951 15.4913 10.5729C13.2381 10.8586 11.4642 12.3284 11.3875 15.2909C11.2747 19.4755 12.8223 23.3855 14.6598 26.7287C11.8564 23.5834 9.1972 20.7074 8.94145 15.1303C8.77751 11.6063 10.7599 8.46552 15.7051 8.56053C16.6824 8.56909 17.6474 8.77999 18.5391 9.17992C19.4307 9.57986 20.2298 10.1601 20.8857 10.8841C21.6243 9.9774 22.4163 9.11549 23.2576 8.30301C20.8173 5.97021 17.5981 4.62426 14.2224 4.52534C8.22601 4.32875 2.87358 9.96806 4.42711 17.0883C5.98982 24.2518 13.6027 30.8367 19.0259 34.5187H19.064C19.3919 33.8378 22.0064 33.3136 24.501 33.3136C26.9956 33.3136 29.616 33.8378 29.9439 34.5187H29.9813C35.4052 30.8393 43.0174 24.2544 44.5794 17.0883C46.1323 9.96806 40.7819 4.32941 34.7828 4.52534Z" fill="#FA4949"/>
<path d="M43.3846 33.1518C43.2141 33.1603 43.8076 32.5804 44.2889 32.4349C43.7618 32.2742 43.2098 32.2111 42.66 32.2488C41.1034 32.4048 39.6091 32.941 38.3089 33.8103C38.265 33.5797 38.7404 33.1236 38.6945 32.8929C37.3556 33.5907 36.1673 34.545 35.1973 35.7015C34.9933 35.554 35.3403 35.1497 35.137 35.0062C34.3584 36.239 33.7413 37.5665 33.3008 38.9562C33.1041 38.7773 32.8962 38.6004 32.6949 38.4195C32.2739 40.0112 30.7984 42.2647 30.5308 42.1435C30.1301 41.367 29.7688 42.0019 29.2527 42.7195C28.792 43.2019 28.2345 43.5816 27.6166 43.8336C26.9988 44.0855 26.3346 44.2041 25.6676 44.1814L25.6427 43.5838L25.5312 42.3715H25.5456V41.4679C25.564 41.017 25.6394 40.5703 25.7699 40.1383C25.9314 39.635 26.1978 39.1716 26.5516 38.7786L28.2566 37.1771C28.6979 36.9668 28.9557 36.7185 28.9557 36.4518C28.9557 35.7061 26.9614 35.1012 24.4964 35.1012C22.0313 35.1012 20.043 35.7061 20.043 36.4518C20.043 36.7191 20.2995 36.9668 20.7388 37.1771L21.9415 38.3042H21.9349L21.9723 38.3324L22.4163 38.7518C22.784 39.1493 23.06 39.6226 23.2248 40.1383C23.4113 40.7963 23.496 41.4789 23.476 42.1625L23.3553 43.5838L23.3304 44.1814C22.6633 44.2034 21.999 44.0845 21.3809 43.8326C20.7628 43.5807 20.2048 43.2014 19.7434 42.7195C19.2325 41.9987 18.8738 41.367 18.4692 42.1435C18.199 42.2647 16.7274 40.0112 16.3051 38.4195C16.1031 38.6004 15.9018 38.7773 15.6992 38.9562C15.2618 37.5663 14.6466 36.2387 13.8689 35.0062C13.6643 35.1497 14.0112 35.554 13.808 35.7015C12.8372 34.5455 11.6488 33.5913 10.3101 32.8929C10.2648 33.1256 10.7402 33.5816 10.6937 33.8103C9.39476 32.9409 7.9015 32.4046 6.3459 32.2488C5.79545 32.2109 5.24271 32.2739 4.71499 32.4349C5.19961 32.5804 5.78982 33.1603 5.61932 33.1518C3.74599 33.1081 1.87289 33.0644 0 33.0207C0.764631 33.8346 3.33001 37.5611 5.20814 39.4424C6.98594 41.2281 11.1029 42.6933 13.1522 43.053C14.1726 43.2332 15.9274 43.5281 16.934 43.7922C18.9669 44.3236 20.0162 45.1198 21.5244 46.0057C21.951 46.2795 22.3156 46.6392 22.5949 47.0619C22.8743 47.4846 23.0623 47.9609 23.1468 48.4604L22.5566 56.5524H26.4434L25.8532 48.4584C25.9382 47.9594 26.1263 47.4837 26.4056 47.0614C26.6848 46.6391 27.0489 46.2796 27.4749 46.0057C28.9832 45.1198 30.0377 44.3236 32.0653 43.7922C33.0732 43.5301 34.8294 43.2332 35.8504 43.053C37.8984 42.6933 42.0147 41.2281 43.7938 39.4424C45.67 37.5585 48.2367 33.8319 49 33.0207C47.1324 33.0653 45.2621 33.1085 43.3846 33.1518Z" fill="#FA4949"/>
</svg>
