<svg width="23" height="23" viewBox="0 0 23 23" fill="none" xmlns="http://www.w3.org/2000/svg">
<path d="M15.2829 6.94935C14.8704 6.53683 14.6642 6.33058 14.5869 6.09274C14.5189 5.88352 14.5189 5.65817 14.5869 5.44895C14.6642 5.2111 14.8704 5.00485 15.2829 4.59233L18.2396 1.6357C17.455 1.28086 16.584 1.08334 15.6669 1.08334C12.2151 1.08334 9.41688 3.88156 9.41688 7.33334C9.41688 7.84484 9.47834 8.34199 9.59428 8.81781C9.71834 9.32734 9.78043 9.58209 9.76949 9.74303C9.75793 9.91157 9.73282 10.0013 9.65511 10.1512C9.58084 10.2944 9.43865 10.4366 9.15422 10.7211L2.64608 17.2292C1.78313 18.0921 1.78313 19.4913 2.64608 20.3542C3.50902 21.2171 4.90813 21.2171 5.77108 20.3542L12.2792 13.8461C12.5637 13.5616 12.7058 13.4194 12.8491 13.3452C12.9991 13.2675 13.0887 13.2424 13.2572 13.2308C13.4181 13.2198 13.6729 13.2819 14.1824 13.4059C14.6582 13.5219 15.1554 13.5833 15.6669 13.5833C19.1187 13.5833 21.9169 10.7851 21.9169 7.33334C21.9169 6.41625 21.7194 5.54529 21.3646 4.7607L18.4079 7.71733C17.9954 8.12985 17.7892 8.3361 17.5513 8.41339C17.3421 8.48137 17.1168 8.48137 16.9075 8.41339C16.6697 8.3361 16.4634 8.12985 16.0509 7.71733L15.2829 6.94935Z" stroke="black" stroke-width="2" stroke-linecap="round" stroke-linejoin="round"/>
</svg>
