<svg width="27" height="27" viewBox="0 0 27 27" fill="none" xmlns="http://www.w3.org/2000/svg">
<g id="category-2-svgrepo-com 1" clip-path="url(#clip0_1_465)">
<path id="Vector" opacity="0.3" d="M19.125 11.25H21.375C23.625 11.25 24.75 10.125 24.75 7.875V5.625C24.75 3.375 23.625 2.25 21.375 2.25H19.125C16.875 2.25 15.75 3.375 15.75 5.625V7.875C15.75 10.125 16.875 11.25 19.125 11.25Z" stroke="#292D32" stroke-width="3" stroke-miterlimit="10" stroke-linecap="round" stroke-linejoin="round"/>
<path id="Vector_2" d="M5.54742 24.8276H7.79742C10.0474 24.8276 11.1724 23.7026 11.1724 21.4526V19.2026C11.1724 16.9526 10.0474 15.8276 7.79742 15.8276H5.54742C3.29742 15.8276 2.17242 16.9526 2.17242 19.2026V21.4526C2.17242 23.7026 3.29742 24.8276 5.54742 24.8276Z" stroke="#292D32" stroke-width="3" stroke-miterlimit="10" stroke-linecap="round" stroke-linejoin="round"/>
<path id="Vector_3" opacity="0.34" d="M6.75 11.25C9.23528 11.25 11.25 9.23528 11.25 6.75C11.25 4.26472 9.23528 2.25 6.75 2.25C4.26472 2.25 2.25 4.26472 2.25 6.75C2.25 9.23528 4.26472 11.25 6.75 11.25Z" stroke="#292D32" stroke-width="3" stroke-miterlimit="10" stroke-linecap="round" stroke-linejoin="round"/>
<path id="Vector_4" opacity="0.34" d="M20.25 24.75C22.7352 24.75 24.75 22.7352 24.75 20.25C24.75 17.7648 22.7352 15.75 20.25 15.75C17.7648 15.75 15.75 17.7648 15.75 20.25C15.75 22.7352 17.7648 24.75 20.25 24.75Z" stroke="#292D32" stroke-width="3" stroke-miterlimit="10" stroke-linecap="round" stroke-linejoin="round"/>
</g>
<defs>
<clipPath id="clip0_1_465">
<rect width="27" height="27" fill="white"/>
</clipPath>
</defs>
</svg>
