<svg width="24" height="24" viewBox="0 0 18 18" fill="none" xmlns="http://www.w3.org/2000/svg">
<g id="user-question-alt-svgrepo-com 1">
<path id="Vector" d="M9.00537 11.6475C9.38922 11.5805 9.64824 11.2029 9.58382 10.804C9.5194 10.405 9.15599 10.1359 8.77207 10.2028L9.00537 11.6475ZM10.2984 16.1127C10.6876 16.1127 11.0032 15.7848 11.0032 15.3803C11.0032 14.9758 10.6876 14.6479 10.2984 14.6479V16.1127ZM12.6172 12.6652C12.3419 12.9512 12.3419 13.415 12.6172 13.701C12.8925 13.987 13.3388 13.987 13.614 13.701L12.6172 12.6652ZM11.0678 10.8033C10.9708 11.1951 11.1976 11.5944 11.5747 11.6952C11.9517 11.796 12.3359 11.5602 12.4329 11.1685L11.0678 10.8033ZM13.1156 14.6479C12.7263 14.6479 12.4108 14.9758 12.4108 15.3803C12.4108 15.7848 12.7263 16.1127 13.1156 16.1127V14.6479ZM13.1227 16.1127C13.5119 16.1127 13.8275 15.7848 13.8275 15.3803C13.8275 14.9758 13.5119 14.6479 13.1227 14.6479V16.1127ZM10.2984 5.12675C10.2984 6.34022 9.35172 7.32394 8.1839 7.32394V8.78873C10.1302 8.78873 11.708 7.1492 11.708 5.12675H10.2984ZM8.1839 7.32394C7.01611 7.32394 6.06943 6.34022 6.06943 5.12675H4.65979C4.65979 7.1492 6.23759 8.78873 8.1839 8.78873V7.32394ZM6.06943 5.12675C6.06943 3.91329 7.01611 2.92957 8.1839 2.92957V1.46478C6.23759 1.46478 4.65979 3.10431 4.65979 5.12675H6.06943ZM8.1839 2.92957C9.35172 2.92957 10.2984 3.91329 10.2984 5.12675H11.708C11.708 3.10431 10.1302 1.46478 8.1839 1.46478V2.92957ZM8.1839 10.2535C7.66473 10.2535 7.17354 10.1373 6.73158 9.92928L6.14991 11.2636C6.77098 11.5559 7.46014 11.7183 8.1839 11.7183V10.2535ZM3.95496 14.2084V12.9517H2.54532V14.2084H3.95496ZM4.37786 14.6479C4.16886 14.6479 4.0545 14.6473 3.97232 14.6403C3.89838 14.634 3.91443 14.6264 3.95496 14.6479L3.315 15.953C3.5063 16.0543 3.69642 16.0866 3.85754 16.1003C4.01043 16.1133 4.19212 16.1127 4.37786 16.1127V14.6479ZM2.54532 14.2084C2.54532 14.4014 2.54477 14.5902 2.55727 14.7491C2.57043 14.9165 2.60149 15.1141 2.69896 15.3129L3.95496 14.6479C3.97562 14.69 3.96826 14.7067 3.96222 14.6299C3.95551 14.5445 3.95496 14.4256 3.95496 14.2084H2.54532ZM3.95496 14.6479L2.69896 15.3129C2.83411 15.5885 3.04976 15.8126 3.315 15.953L3.95496 14.6479ZM3.95496 12.9517C3.95496 12.4542 3.95781 12.3029 3.97751 12.1897L2.59041 11.9288C2.54248 12.204 2.54532 12.5181 2.54532 12.9517H3.95496ZM5.1107 9.53584C5.02696 9.54243 4.94511 9.55239 4.86238 9.56799L5.1135 11.0093C5.13919 11.0045 5.17181 11 5.21782 10.9964L5.1107 9.53584ZM3.97751 12.1897C4.08224 11.5886 4.535 11.1182 5.1135 11.0093L4.86238 9.56799C3.70539 9.78566 2.79987 10.7266 2.59041 11.9288L3.97751 12.1897ZM6.73158 9.92928C6.39968 9.77306 6.14597 9.6509 5.97742 9.60154L5.59473 11.0113C5.59057 11.0101 5.59843 11.0122 5.62516 11.023C5.65074 11.0332 5.68569 11.0482 5.73403 11.0699C5.83188 11.1139 5.9633 11.1757 6.14991 11.2636L6.73158 9.92928ZM5.21782 10.9964C5.38535 10.9831 5.41161 10.9824 5.45576 10.9858L5.56048 9.52507C5.39277 9.51211 5.26042 9.52398 5.1107 9.53584L5.21782 10.9964ZM5.97742 9.60154C5.82576 9.55708 5.71761 9.53723 5.56048 9.52507L5.45576 10.9858C5.49738 10.9891 5.51502 10.9917 5.52607 10.9937C5.53712 10.9957 5.55455 10.9995 5.59473 11.0113L5.97742 9.60154ZM8.77207 10.2028C8.58128 10.2361 8.38477 10.2535 8.1839 10.2535V11.7183C8.46329 11.7183 8.73775 11.6941 9.00537 11.6475L8.77207 10.2028ZM10.2984 14.6479H4.37786V16.1127H10.2984V14.6479ZM13.8204 11.3521C13.8204 11.479 13.7884 11.5757 13.5952 11.7694C13.4869 11.878 13.3593 11.9858 13.1824 12.1387C13.0145 12.2839 12.8175 12.4571 12.6172 12.6652L13.614 13.701C13.7661 13.5429 13.9215 13.4052 14.0839 13.2648C14.2374 13.1322 14.4182 12.9797 14.5742 12.8233C14.9097 12.4868 15.23 12.0343 15.23 11.3521H13.8204ZM13.1155 10.6197C13.5048 10.6197 13.8204 10.9476 13.8204 11.3521H15.23C15.23 10.1386 14.2834 9.15492 13.1155 9.15492V10.6197ZM12.4329 11.1685C12.5112 10.8524 12.7882 10.6197 13.1155 10.6197V9.15492C12.1294 9.15492 11.3025 9.85582 11.0678 10.8033L12.4329 11.1685ZM13.1156 16.1127H13.1227V14.6479H13.1156V16.1127Z" fill="#A5A5A5"/>
</g>
</svg>
