<svg width="24" height="24" viewBox="0 0 18 18" fill="none" xmlns="http://www.w3.org/2000/svg">
<g id="dimensions-svgrepo-com 1" clip-path="url(#clip0_16_264)">
<path id="Vector" d="M13.5405 3.02818L15.655 4.85917L13.5405 6.69015V5.22537H5.08266V6.69015L2.96819 4.85917L5.08266 3.02818V4.49297H13.5405V3.02818ZM1.55855 9.61973H2.26337V8.88734H1.55855V9.61973ZM1.55855 11.0845H2.26337V10.3521H1.55855V11.0845ZM1.55855 8.15494H2.26337V7.42255H1.55855V8.15494ZM16.3598 8.15494H17.0646V7.42255H16.3598V8.15494ZM16.3598 9.61973H17.0646V8.88734H16.3598V9.61973ZM16.3598 11.0845H17.0646V10.3521H16.3598V11.0845ZM1.55855 12.5493H2.26337V11.8169H1.55855V12.5493ZM16.3598 12.5493H17.0646V11.8169H16.3598V12.5493ZM1.55855 14.0141H2.26337V13.2817H1.55855V14.0141ZM16.3598 14.0141H17.0646V13.2817H16.3598V14.0141ZM1.55855 15.4789H2.26337V14.7465H1.55855V15.4789ZM16.3598 15.4789H17.0646V14.7465H16.3598V15.4789ZM16.3598 3.02818V6.69015H17.0646V3.02818H16.3598ZM1.55855 3.02818V6.69015H2.26337V3.02818H1.55855Z" fill="#8C8C8C"/>
</g>
<defs>
<clipPath id="clip0_16_264">
<rect width="16.9157" height="17.5775" fill="white" transform="translate(0.853729 0.0986023)"/>
</clipPath>
</defs>
</svg>
